<?xml version="1.0" encoding="utf-8"?>
<!-- Generator: Adobe Illustrator 21.1.0, SVG Export Plug-In . SVG Version: 6.00 Build 0)  -->
<svg version="1.1" id="Layer_1" xmlns="http://www.w3.org/2000/svg" xmlns:xlink="http://www.w3.org/1999/xlink" x="0px" y="0px"
	 viewBox="0 0 285 282.4" style="enable-background:new 0 0 285 282.4;" xml:space="preserve">
<style type="text/css">
	.st0{fill:#FFFFFF;}
</style>
<g transform="matrix( 1, 0, 0, 1, 0,0) ">
	<g>
		<g id="Layer1_0_FILL">
			<path d="M105.9,245l8.9,32.9l33-8.8l-8.9-33L105.9,245 M80.9,235.4l-18.4,5l4.9,18.4l18.4-4.9L80.9,235.4 M0,123l3.7,17l44.6-9.5
				l-3.6-17L0,123 M73.1,100.7l-7.8-28.9l-28.9,7.8l7.8,28.9L73.1,100.7 M225.8,135.9l2.9,11.8l38.7-10.3l-2.8-11.7L225.8,135.9
				 M272.8,90.8l-15,4l-4.4-16.4l-23.4,5.9l-11.2-40.3l-40.4,9.8L165.7,9.7l-40.3,14.2L117.2,0L58.1,18.2l24.6,86.4l-24.4,6.7
				l4.9,21.9L7.4,145.6L32,242l52.4-13.5l3.9,13.9l57.6-15.8l16.8,55.8l90.2-25.2l-10.1-39.7l37.8-12l-19.4-61.2l-3.1,0.8h0
				l-34.9,8.9l-5.8-21.3l62.5-16.8L272.8,90.8 M271.3,11.7l-50.7,13.6L234.2,76L285,62.4L271.3,11.7z"/>
		</g>
	</g>
</g>
<g transform="matrix( 1, 0, 0, 1, 0,0) ">
	<g>
		<g id="Layer0_0_FILL">
			<path class="st0" d="M152.6,163.6c0.7-5.2,4-7.9,10.1-8c-9.6-5.8-16.6-4-20.9,5.4c-3,0.1-5.9,0.8-8.8,2.2c-1,0.4-1.9,0.9-2.8,1.5
				c-2.1,1.7-2,3.2,0.2,4.6l3.8,2.2c1.1,0.7,1.2,1.7,0.3,2.8l-3.2,3.4c-1.7,1.7-1.4,3.1,0.8,4.1l3.4,1.2c0.9,0.7,1,1.6,0.3,2.9
				l-2.3,3.4c-1.1,1.8-0.7,3,1,3.6l6.3,1.7c1,0.5,1.2,1.2,0.5,2.4l-2.7,4c-1.2,2.2-0.2,3.4,2.9,3.6c3.2,0.1,6.3-0.5,9.5-1.8
				c5.5,8,12.9,7.9,22-0.4c-7.2,1.6-11.6-0.6-13.1-6.6c1.2-1.7,2.2-3.6,3-5.8c2-5.7,1.7-11.2-0.9-16.6
				C159.9,169,156.7,165.7,152.6,163.6 M150.3,170.7c0.7,1.4,0.8,2.9,0.3,4.4c-0.5,1.5-1.5,2.6-2.9,3.3c-1.4,0.7-2.9,0.7-4.5,0.2
				c-1.5-0.5-2.6-1.5-3.2-3c-0.7-1.4-0.7-2.9-0.2-4.4c0.6-1.5,1.6-2.6,2.9-3.2c1.4-0.7,2.9-0.8,4.4-0.3
				C148.6,168.3,149.6,169.3,150.3,170.7 M145.9,192.4c-0.4-0.9-0.5-1.9-0.1-2.8c0.3-0.9,1-1.6,1.9-2c0.9-0.5,1.8-0.6,2.8-0.2
				c0.9,0.3,1.6,0.9,2.1,1.8c0.1,0.2,0.2,0.5,0.3,0.8c0.1,0.7,0,1.3-0.1,2c-0.4,0.9-1.1,1.6-2,2.1c-0.9,0.4-1.8,0.4-2.8,0
				C147,193.8,146.3,193.2,145.9,192.4 M162,90.7c-4.3-3.8-9.4-5.8-15.5-5.8c-6,0-11.2,1.9-15.6,5.8c-4.3,3.9-6.4,8.5-6.4,13.9
				s2.1,10.1,6.4,13.9c0.7,0.6,1.3,1.1,2,1.6c-1.4,2.5-2.4,4.4-2.8,5.6c-0.6,1.6-0.1,2.8,1.5,3.5c1.6,0.7,3.1,1.4,4.7,2.1
				c1.5,0.6,2.7-0.4,3.6-3.1c-0.4,2.8,0.1,4.4,1.4,4.8c0.1,0,0.6,0.1,1.4,0.4c0.8,0.2,2.6,0.1,5.4-0.1c1.1-0.2,1.4-1.7,1-4.3
				c0.6,2.9,1.6,4.2,3.1,3.9c1.5-0.2,3.1-0.9,4.9-2c1.2-0.7,1.5-1.8,0.9-3.3c-0.6-1.5-1.3-3.2-1.9-5.1c2.1-0.9,4-2.2,5.9-3.9
				c4.3-3.9,6.4-8.5,6.4-13.9S166.3,94.6,162,90.7 M159.8,99.5c0.1,0.1,0.2,0.1,0.3,0.1c2,1,3.5,2.5,4.5,4.6
				c1.1,2.2,1.2,4.5,0.5,6.8c-0.7,2.2-2.1,3.8-4.1,4.8c-1.3,0.6-2.6,0.8-4,0.7c-0.8-0.1-1.5-0.4-2.2-0.7c-2.2-0.9-3.8-2.5-4.8-4.8
				c-1-2.3-1.2-4.5-0.6-6.8c0.7-2.3,2.1-3.9,4.1-4.8C155.5,98.6,157.6,98.6,159.8,99.5 M139.2,107.7c0.2,1.6-0.2,3-1.2,4.4
				c-0.9,1.4-2.2,2.2-3.8,2.6c-1.5,0.4-2.9,0.2-4.1-0.7c-1.3-0.9-2-2.1-2.2-3.7c-0.2-1.6,0.2-3.1,1.2-4.4c1-1.4,2.3-2.2,3.8-2.6
				c1.6-0.4,3-0.1,4.2,0.8C138.4,104.9,139.1,106.1,139.2,107.7 M146.7,117.4c0.4,0.5,0.8,1.1,1,1.9c0.2,0.8,0.2,1.4,0.1,2
				c-0.2,0.6-0.5,1-0.9,1.1c-0.4,0.1-0.8-0.1-1.2-0.4c0,0-0.1-0.1-0.1-0.1c-0.4-0.4-0.7-0.9-0.8-1.6c-0.3,0.5-0.7,0.9-1.1,1.2
				c-0.4,0.3-0.8,0.3-1.1,0.1c-0.3-0.2-0.4-0.5-0.4-1s0.1-1,0.4-1.5c0.3-0.5,0.7-0.9,1.1-1.2c0.4-0.2,0.7-0.3,1-0.2
				c0.2-0.4,0.4-0.6,0.7-0.7C145.8,116.8,146.2,117,146.7,117.4 M190.1,98.3c1.9-1.6,4.1-2,6.5-1.3c1.3,0.3,3.8,1.4,7.4,3.1l7-12.2
				c-2.8-2.6-5.6-4.3-8.4-5.1c-2.7-0.7-5.1-0.6-7.3,0.2c-2.1,0.8-4.5,2.8-7.1,5.8l1.6-10.1l-17-2.7l-3.3,52.8l8.9,1.4l4.5-16.4
				C184.9,105.8,187.4,100.7,190.1,98.3 M124.2,140.6l-20.6-3.5l15.9,76.5l9.1-2.2l-0.5-8c0.7,0.1,1.6-0.2,2.6-1l4.5-3.8
				c1.7-1.6,1.5-2.5-0.6-2.9l-7-1.4l-0.2-3.4l3.1-3.4c1.5-1.8,1.3-3.1-0.6-3.9l-0.2-0.1l-2.8-1.2l-0.4-5.1l3.1-2.5
				c1.3-1.1,1.4-2,0.2-2.6l-3.7-1.5L124.2,140.6 M83.6,147c-4.1-0.6-10-0.1-17.6,1.4c-7.8,1.7-13.9,4.1-18.1,7.2
				c-5.4,4.1-9.1,9.3-10.9,15.5c-2,6.2-2.2,13-0.6,20.5c1.5,7.1,4.2,13.1,8.2,18c4,4.9,8.8,8.2,14.5,9.9c5.7,1.7,12.6,1.8,20.8,0.1
				c6.6-1.4,12.2-3.3,16.7-5.9c4.5-2.6,9.4-6.6,14.8-12.2l-6.1-29.3L72.6,179l2.9,14.2l14.2-2.9l1.4,6.5c-2.4,2.2-4.7,3.8-6.7,5
				c-2,1.2-4.2,2-6.6,2.5c-5,1.1-9.2,0.3-12.7-2.4c-3.5-2.6-6-7.6-7.6-15c-1.4-7-1.1-12.4,1.1-16.2c2.1-3.8,5.4-6.2,10-7.2
				c3.1-0.6,5.9-0.5,8.2,0.5c2.3,1,4.1,2.7,5.5,5.1l19.7-8c-2.1-4.2-4.7-7.4-7.8-9.9C91.1,149,87.6,147.5,83.6,147 M142.6,53.1V27.8
				l-55,17.3l21.5,88.4l11.2-4l-6.1-49.6h27.4l-1.9-14.1l-27,3.5l-1.4-9.5L142.6,53.1 M228.9,171.4l-6.4-3.6l-9.6,14.6l-4.5-1.6
				l-4.2,35.1c-2.2,1.8-4.1,2.9-5.9,3.1c-1.7,0.2-3.6-0.3-5.5-1.4c-3-1.7-5.5-3.7-7.6-5.9l-5.4,12.6c4.7,3.6,8.3,6.1,10.8,7.5
				c6,3.5,11.2,4.7,15.6,3.8c3.2-0.8,7.1-3.8,11.9-9l37.4-40.6l-8.9-4.4l-25.4,24.4L228.9,171.4 M209,177.2l7-12.2
				c-2.8-2.6-5.6-4.3-8.4-5.1c-2.7-0.7-5.1-0.6-7.3,0.2c-2.1,0.8-4.5,2.8-7.1,5.8l1.6-10.1l-17-2.7l-3.3,52.8l8.8,1.4l4.5-16.5
				c2.2-7.9,4.6-13,7.4-15.3c1.9-1.6,4.1-2,6.5-1.4C203,174.4,205.4,175.5,209,177.2z"/>
		</g>
	</g>
</g>
</svg>
